<?xml version="1.0" encoding="UTF-8"?>
<!DOCTYPE svg PUBLIC "-//W3C//DTD SVG 1.1//EN" "http://www.w3.org/Graphics/SVG/1.1/DTD/svg11.dtd">
<!-- Creator: CorelDRAW X8 -->
<svg xmlns="http://www.w3.org/2000/svg" xml:space="preserve" width="343px" height="87px" version="1.1" style="shape-rendering:geometricPrecision; text-rendering:geometricPrecision; image-rendering:optimizeQuality; fill-rule:evenodd; clip-rule:evenodd"
viewBox="0 0 308 78"
 xmlns:xlink="http://www.w3.org/1999/xlink">
 <defs>
  <style type="text/css">
   <![CDATA[
    .fil1 {fill:black;fill-rule:nonzero}
    .fil0 {fill:url(#id0)}
   ]]>
  </style>
  <radialGradient id="id0" gradientUnits="userSpaceOnUse" gradientTransform="matrix(0.999999 -0 -0 0.678326 0 13)" cx="57.7675" cy="39.1854" r="583.378" fx="57.7675" fy="39.1854">
   <stop offset="0" style="stop-opacity:1; stop-color:#FEEC15"/>
   <stop offset="0.4" style="stop-opacity:1; stop-color:#F7DB1C"/>
   <stop offset="1" style="stop-opacity:1; stop-color:#F1CB23"/>
  </radialGradient>
 </defs>
 <g id="Capa_x0020_1">
  <metadata id="CorelCorpID_0Corel-Layer"/>
  <path class="fil0" d="M80 39c-4,2 -10,4 -18,6 -7,1 -11,2 -11,2 -6,2 -10,4 -12,6 -2,4 -3,7 -3,10 0,5 1,9 4,12 3,2 7,3 12,3 9,0 15,-2 20,-7 5,-5 8,-12 8,-21l0 -11zm30 -24c4,7 6,15 6,24 0,9 -3,18 -7,26 1,-4 1,-8 1,-13l0 -37zm-105 48c-3,-7 -5,-15 -5,-24 0,-11 3,-22 9,-30 0,0 0,0 0,0l31 0c1,-4 4,-6 7,-7 4,-1 8,-2 12,-2 4,0 8,1 13,2 5,2 7,5 7,9 0,6 -6,10 -20,12 -3,1 -5,1 -8,1 -2,1 -4,1 -5,1 -12,2 -22,6 -29,11 -8,6 -11,15 -12,27z"/>
  <path class="fil1" d="M160 35c0,1 -2,1 -3,1 -2,1 -2,1 -2,1 -2,0 -2,1 -3,1 0,1 -1,2 -1,2 0,1 1,2 1,3 1,0 2,0 3,0 2,0 3,0 4,-1 1,-1 1,-3 1,-4l0 -3zm2 12c-1,1 -3,1 -4,1 -2,0 -3,0 -4,0 -2,0 -4,0 -6,-1 -2,-2 -3,-4 -3,-7 0,-2 1,-4 3,-5 1,-1 3,-2 6,-3 0,0 0,0 1,0 0,0 1,0 1,0 3,0 4,-1 4,-2 0,-1 0,-2 -1,-2 -1,-1 -2,-1 -3,-1 -1,0 -2,0 -2,1 -1,0 -1,0 -2,1l-6 0c0,-2 1,-3 3,-5 1,-1 4,-2 7,-2 3,0 6,1 8,2 2,1 3,3 3,5l0 9c0,2 -1,4 -2,6 -1,1 -2,2 -3,3zm6 -32l4 0c1,0 1,1 2,1 1,1 1,1 1,2l0 30 -7 0 0 -33zm23 20c-1,1 -2,1 -4,1 -1,1 -2,1 -2,1 -1,0 -2,1 -2,1 -1,1 -1,2 -1,2 0,1 0,2 1,3 1,0 1,0 2,0 2,0 4,0 5,-1 1,-1 1,-3 1,-4l0 -3zm2 12c-2,1 -3,1 -5,1 -1,0 -2,0 -4,0 -2,0 -4,0 -6,-1 -1,-2 -2,-4 -2,-7 0,-2 1,-4 2,-5 2,-1 4,-2 6,-3 0,0 1,0 1,0 1,0 1,0 2,0 3,0 4,-1 4,-2 0,-1 0,-2 -1,-2 -1,-1 -2,-1 -3,-1 -1,0 -2,0 -3,1 0,0 -1,0 -1,1l-6 0c0,-2 1,-3 2,-5 2,-1 4,-2 8,-2 3,0 6,1 8,2 1,1 2,3 2,5l0 9c0,2 0,4 -1,6 -1,1 -2,2 -3,3zm28 1l-7 0 0 -15 0 -1c0,-2 0,-3 -1,-4 -1,0 -2,-1 -3,-1 -2,0 -3,1 -3,1 -1,1 -2,2 -2,4l0 16 -6 0 0 -15c0,-4 1,-7 3,-9 2,-1 5,-2 7,-2 2,0 3,0 5,1 1,0 2,0 3,1 1,0 3,-1 4,-1 1,-1 2,-1 4,-1 3,0 5,1 8,2 2,2 3,5 3,9l0 15 -3 0c-1,0 -2,0 -3,-1 0,-1 0,-1 0,-2l0 0 0 -13c0,-2 -1,-3 -2,-4 -1,0 -2,-1 -3,-1 -1,0 -2,1 -3,1 -1,1 -1,2 -1,4l0 1 0 15zm35 -8l4 0c0,3 -2,5 -4,6 -2,2 -4,2 -7,2 -4,0 -7,-1 -9,-3 -2,-2 -3,-6 -3,-10 0,-4 1,-7 3,-9 2,-3 5,-4 9,-4 4,0 7,1 9,3 2,3 3,6 3,10 0,1 0,1 0,1 0,0 0,0 0,0 0,1 0,1 0,1l-17 0c0,2 1,3 2,4 0,1 2,2 3,2 1,0 2,0 3,-1 0,0 0,0 1,0 0,0 0,0 0,-1 0,0 0,0 1,0 0,-1 1,-1 2,-1zm-12 -7l10 0c0,-2 -1,-3 -1,-4 -1,-1 -2,-1 -4,-1 -1,0 -3,0 -3,1 -1,1 -2,2 -2,4zm35 -18l4 0c0,0 1,0 2,1 0,1 1,2 1,2l0 19c0,4 -1,7 -4,9 -3,2 -6,2 -9,2 -1,0 -3,0 -4,0 -2,-1 -3,-2 -4,-3 -2,-2 -3,-6 -3,-10 0,-4 1,-7 3,-9 2,-3 4,-4 7,-4 2,0 3,0 4,1 2,1 3,2 3,3l0 -11zm-10 20c0,3 0,5 1,6 1,1 2,2 4,2 2,0 3,-1 4,-2 1,-1 1,-3 1,-6 0,-2 0,-4 -1,-5 -1,-2 -2,-2 -4,-2 -2,0 -3,0 -4,2 -1,1 -1,3 -1,5zm33 0c-1,1 -2,1 -4,1 -1,1 -2,1 -2,1 -1,0 -2,1 -2,1 -1,1 -1,2 -1,2 0,1 0,2 1,3 1,0 1,0 2,0 2,0 4,0 5,-1 1,-1 1,-3 1,-4l0 -3zm2 12c-2,1 -3,1 -5,1 -1,0 -2,0 -3,0 -3,0 -5,0 -6,-1 -2,-2 -3,-4 -3,-7 0,-2 1,-4 2,-5 2,-1 4,-2 6,-3 1,0 1,0 1,0 1,0 1,0 2,0 3,0 4,-1 4,-2 0,-1 0,-2 -1,-2 -1,-1 -2,-1 -3,-1 -1,0 -2,0 -2,1 -1,0 -2,0 -2,1l-6 0c0,-2 1,-3 2,-5 2,-1 4,-2 8,-2 3,0 6,1 8,2 1,1 2,3 2,5l0 9c0,2 0,4 -1,6 -1,1 -2,2 -3,3z"/>
  <path class="fil1" d="M173 67c-1,0 -1,0 -2,0 -2,0 -2,0 -3,-1 -1,0 -1,-1 -1,-3 0,-1 0,-2 1,-3 1,0 2,-1 3,-1 1,0 1,0 2,1l0 1c-1,-1 -1,-1 -2,-1 -1,0 -2,0 -2,1 -1,1 -1,1 -1,2 0,1 0,2 1,3 0,0 1,1 2,1 0,0 1,0 1,-1l0 -2 -1 0 0 -1 2 0 0 4zm8 0l-1 0 -2 -2c0,0 0,0 0,0 0,-1 0,-1 0,-1 -1,0 -1,0 -1,0 0,0 0,0 0,0l-1 0 0 3 -1 0 0 -8 2 0c1,0 1,0 1,1 1,0 1,0 1,0 0,0 1,0 1,1 0,0 0,0 0,1 0,0 0,0 0,0 0,1 0,1 -1,1 0,0 0,0 0,0 0,1 -1,1 -1,1l0 0c0,0 0,0 0,0 1,0 1,0 1,0 0,0 0,0 0,1 0,0 0,0 0,0l2 2zm-5 -7l0 3 1 0c0,0 1,0 1,0 0,0 0,0 0,0 1,0 1,-1 1,-1 0,0 0,0 0,0 0,-1 0,-1 -1,-1 0,-1 0,-1 -1,-1l-1 0zm12 4c0,2 -1,3 -3,3 -2,0 -3,-1 -3,-3l0 -5 1 0 0 5c0,2 0,3 2,3 1,0 2,-1 2,-3l0 -5 1 0 0 5zm3 0l0 3 -1 0 0 -8 2 0c1,0 1,1 2,1 0,0 0,1 0,2 0,1 0,1 0,2 -1,0 -2,0 -2,0l-1 0zm0 -4l0 4 0 0c1,0 2,-1 2,-1 0,0 0,-1 0,-1 0,-1 0,-2 -1,-2l-1 0zm8 7c-1,0 -2,0 -3,-1 0,0 -1,-1 -1,-3 0,-1 1,-2 1,-3 1,0 2,-1 3,-1 1,0 2,1 3,1 1,1 1,2 1,3 0,2 0,3 -1,3 -1,1 -2,1 -3,1zm0 -7c-1,0 -1,0 -2,1 0,1 -1,1 -1,2 0,1 1,2 1,3 1,0 1,1 2,1 1,0 2,-1 2,-1 1,-1 1,-2 1,-3 0,-1 0,-1 -1,-2 0,-1 -1,-1 -2,-1zm15 7l-1 0 -1 -2 -4 0 0 2 -1 0 3 -8 1 0 3 8zm-3 -3l-1 -3c0,0 0,0 0,-1l0 0c0,1 0,1 0,1l-1 3 2 0zm8 3l-4 0 0 -8 1 0 0 8 3 0 0 0zm8 0l-1 0 -1 -2 -4 0 0 2 -1 0 3 -8 1 0 3 8zm-3 -3l-1 -3c0,0 0,0 0,-1l0 0c0,1 0,1 0,1l-1 3 2 0zm11 3l-1 0 0 -5c0,0 0,0 0,-1 0,0 0,0 0,-1l0 0c0,1 0,1 0,1 0,0 0,0 0,0 0,0 0,0 0,0 0,0 0,0 0,1l-2 3 -1 0 -2 -3c0,0 0,-1 0,-1 0,0 0,0 0,0 0,0 0,0 0,0 0,0 0,0 0,-1l0 0c0,1 0,1 0,1 0,0 0,1 0,1l0 5 -1 0 0 -8 1 0 2 4c0,0 0,1 0,1 0,0 0,0 0,0l0 0c0,0 0,0 0,0 1,0 1,-1 1,-1l2 -4 1 0 0 8zm6 0l-4 0 0 -8 4 0 0 1 -3 0 0 3 3 0 0 1 -3 0 0 3 3 0 0 0zm2 0l0 -8 2 0c3,0 4,2 4,4 0,2 0,2 -1,3 -1,1 -2,1 -3,1l-2 0zm1 -7l0 7 1 0c1,0 2,-1 2,-1 1,-1 1,-2 1,-3 0,-2 -1,-3 -3,-3l-1 0zm13 7l-1 0 -1 -2 -4 0 0 2 -2 0 4 -8 0 0 4 8zm-3 -3l-1 -3c0,0 0,0 0,-1l0 0c0,1 0,1 0,1l-1 3 2 0zm6 3l0 -1c1,0 1,0 1,0 0,0 0,0 0,0 1,1 1,1 1,1 0,0 0,0 1,0 0,0 1,0 1,-1 0,0 0,0 0,-1 0,0 0,0 0,0 0,0 0,0 0,-1 0,0 -1,0 -1,0 0,0 0,0 -1,0 0,0 0,-1 0,-1 -1,0 -1,0 -1,0 0,0 0,-1 0,-1 -1,0 -1,0 -1,-1 0,0 1,0 1,-1 0,0 0,0 0,0 1,0 1,0 1,-1 0,0 1,0 1,0 1,0 2,0 2,1l0 1c-1,-1 -1,-1 -2,-1 0,0 0,0 -1,0 0,0 0,0 0,0 0,1 0,1 0,1 -1,0 -1,0 -1,0 0,1 0,1 1,1 0,0 0,0 0,0 0,0 0,1 0,1 1,0 1,0 1,0 0,0 1,0 1,0 0,1 0,1 1,1 0,0 0,0 0,1 0,0 0,0 0,0 0,1 0,1 0,1 0,1 0,1 -1,1 0,0 0,0 -1,0 0,0 0,0 -1,0 0,0 0,0 0,0 0,0 0,0 -1,0 0,0 0,0 0,0 0,0 0,0 -1,0zm7 0c0,0 0,0 0,0 -1,0 -1,0 -1,0 0,0 0,0 1,-1 0,0 0,0 0,0 0,0 0,0 0,0 1,1 1,1 1,1 0,0 0,0 -1,0 0,0 0,0 0,0zm8 0l-1 0 -1 -2 -3 0 -1 2 -1 0 3 -8 1 0 3 8zm-2 -3l-1 -3c0,0 0,0 0,-1l0 0c0,1 0,1 0,1l-2 3 3 0zm4 3c0,0 -1,0 -1,0 0,0 0,0 0,0 0,0 0,0 0,-1 0,0 1,0 1,0 0,0 0,0 0,0 0,1 0,1 0,1 0,0 0,0 0,0 0,0 0,0 0,0zm7 0c0,0 -1,0 -2,0 -1,0 -2,0 -3,-1 0,0 -1,-1 -1,-2 0,-2 1,-3 2,-4 0,0 1,-1 2,-1 1,0 2,0 2,1l0 1c0,-1 -1,-1 -2,-1 0,0 -1,0 -2,1 0,1 -1,1 -1,2 0,1 1,2 1,3 1,0 1,1 2,1 1,0 2,-1 2,-1l0 1zm2 0c0,0 0,0 0,0 0,0 0,0 0,0 0,0 0,0 0,-1 0,0 0,0 0,0 0,0 0,0 1,0 0,1 0,1 0,1 0,0 0,0 0,0 -1,0 -1,0 -1,0z"/>
 </g>
</svg>
