<?xml version="1.0" encoding="UTF-8"?>
<!DOCTYPE svg PUBLIC "-//W3C//DTD SVG 1.1//EN" "http://www.w3.org/Graphics/SVG/1.1/DTD/svg11.dtd">
<!-- Creator: CorelDRAW X8 -->
<svg xmlns="http://www.w3.org/2000/svg" xml:space="preserve" width="102px" height="100px" version="1.1" style="shape-rendering:geometricPrecision; text-rendering:geometricPrecision; image-rendering:optimizeQuality; fill-rule:evenodd; clip-rule:evenodd"
viewBox="0 0 100 98"
 xmlns:xlink="http://www.w3.org/1999/xlink">
 <defs>
  <style type="text/css">
   <![CDATA[
    .fil1 {fill:black;fill-rule:nonzero}
    .fil0 {fill:url(#id0)}
   ]]>
  </style>
  <radialGradient id="id0" gradientUnits="userSpaceOnUse" gradientTransform="matrix(0.999999 -0 -0 0.678326 0 8)" cx="50.1751" cy="24.1094" r="358.931" fx="50.1751" fy="24.1094">
   <stop offset="0" style="stop-opacity:1; stop-color:#FEEC15"/>
   <stop offset="0.4" style="stop-opacity:1; stop-color:#F7DB1C"/>
   <stop offset="1" style="stop-opacity:1; stop-color:#F1CB23"/>
  </radialGradient>
 </defs>
 <g id="Capa_x0020_1">
  <metadata id="CorelCorpID_0Corel-Layer"/>
  <path class="fil0" d="M64 24c-3,1 -7,2 -11,4 -5,1 -7,1 -7,1 -3,1 -6,2 -7,4 -2,2 -2,4 -2,6 0,3 0,5 2,7 2,1 4,2 8,2 5,0 9,-1 12,-4 3,-3 5,-8 5,-13l0 -7zm18 -15c3,5 4,10 4,15 0,6 -2,11 -4,16 0,-2 0,-5 0,-8l0 -23zm-64 30c-2,-5 -3,-10 -3,-15 0,-7 2,-13 5,-19 0,0 0,0 0,0l19 0c1,-2 3,-3 5,-4 2,-1 4,-1 7,-1 2,0 5,0 8,1 3,1 5,3 5,6 0,4 -5,6 -13,7 -2,1 -3,1 -5,1 -1,0 -2,1 -3,1 -7,1 -13,3 -18,6 -5,4 -7,9 -7,17z"/>
  <path class="fil1" d="M9 78c0,1 -1,1 -2,1 -1,0 -1,1 -1,1 -1,0 -1,0 -2,0 0,1 0,1 0,2 0,0 0,1 0,1 1,0 1,0 2,0 1,0 2,0 2,0 1,-1 1,-2 1,-3l0 -2zm1 8c-1,0 -1,0 -2,0 -1,1 -2,1 -3,1 -1,0 -2,-1 -3,-2 -1,0 -2,-2 -2,-3 0,-2 0,-3 1,-4 1,-1 3,-1 4,-1 0,0 1,0 1,0 0,0 0,0 1,0 1,-1 2,-1 2,-2 0,-1 0,-1 -1,-1 0,0 -1,0 -1,0 -1,0 -1,0 -2,0 0,0 0,0 -1,1l-4 0c1,-1 1,-2 2,-3 1,-1 3,-2 5,-2 2,0 3,1 4,2 2,0 2,1 2,3l0 5c0,2 0,3 -1,4 0,1 -1,1 -2,2zm4 -20l2 0c1,0 1,0 2,1 0,0 0,1 0,1l0 18 -4 0 0 -20zm14 12c0,1 -1,1 -2,1 -1,0 -1,1 -1,1 -1,0 -2,0 -2,0 0,1 0,1 0,2 0,0 0,1 0,1 1,0 1,0 2,0 1,0 2,0 2,0 1,-1 1,-2 1,-3l0 -2zm1 8c-1,0 -2,0 -2,0 -1,1 -2,1 -3,1 -1,0 -2,-1 -4,-2 -1,0 -1,-2 -1,-3 0,-2 0,-3 1,-4 1,-1 2,-1 4,-1 0,0 0,0 1,0 0,0 0,0 1,0 1,-1 2,-1 2,-2 0,-1 0,-1 -1,-1 0,0 -1,0 -1,0 -1,0 -1,0 -2,0 0,0 -1,0 -1,1l-4 0c0,-1 1,-2 2,-3 1,-1 2,-2 4,-2 3,0 4,1 5,2 1,0 2,1 2,3l0 5c0,2 0,3 -1,4 0,1 -1,1 -2,2zm17 0l-4 0 0 -9 0 -1c0,-1 0,-1 -1,-2 0,0 -1,0 -1,0 -1,0 -2,0 -2,0 -1,1 -1,1 -1,2l0 10 -4 0 0 -9c0,-2 0,-4 2,-5 1,-1 3,-2 4,-2 1,0 2,1 3,1 1,0 2,0 2,1 1,-1 2,-1 3,-1 0,0 1,-1 2,-1 2,0 3,1 5,2 1,1 2,2 2,5l0 9 -2 0c-1,0 -1,0 -2,0 0,-1 0,-1 0,-2l0 0 0 -8c0,-1 0,-1 -1,-2 -1,0 -1,0 -2,0 -1,0 -1,0 -2,0 0,1 -1,1 -1,2l0 1 0 9zm22 -4l3 0c-1,1 -1,2 -3,3 -1,1 -2,2 -4,2 -2,0 -4,-1 -5,-3 -2,-1 -2,-3 -2,-6 0,-2 0,-4 2,-5 1,-2 3,-3 5,-3 2,0 4,1 5,3 1,1 2,3 2,6 0,0 0,0 0,0 0,0 0,0 0,0 0,0 0,1 0,1l-10 0c0,1 0,2 1,2 0,1 1,1 2,1 1,0 1,0 2,0 0,0 0,0 0,0 0,0 0,-1 0,-1 0,0 1,0 1,0 0,0 0,0 1,0zm-7 -5l6 0c0,-1 -1,-2 -1,-2 0,-1 -1,-1 -2,-1 -1,0 -2,0 -2,1 -1,0 -1,1 -1,2zm22 -11l2 0c0,0 1,0 1,1 0,0 0,1 0,1l0 12c0,2 0,4 -2,5 -2,1 -3,2 -5,2 -1,0 -2,-1 -3,-1 -1,0 -2,-1 -2,-1 -2,-2 -2,-4 -2,-6 0,-3 0,-5 2,-6 1,-2 2,-3 4,-3 1,0 2,1 3,1 0,0 1,1 2,2l0 -7zm-7 12c0,2 0,3 1,4 0,1 1,1 2,1 1,0 2,0 3,-1 0,-1 1,-2 1,-4 0,-1 -1,-2 -1,-3 -1,-1 -2,-1 -3,-1 -1,0 -2,0 -2,1 -1,1 -1,2 -1,3zm21 0c-1,1 -2,1 -3,1 -1,0 -1,1 -1,1 -1,0 -1,0 -2,0 0,1 0,1 0,2 0,0 0,1 1,1 0,0 0,0 1,0 1,0 2,0 3,0 0,-1 1,-2 1,-3l0 -2zm0 8c0,0 -1,0 -2,0 -1,1 -2,1 -3,1 -1,0 -2,-1 -3,-2 -1,0 -2,-2 -2,-3 0,-2 1,-3 2,-4 1,-1 2,-1 3,-1 0,0 1,0 1,0 0,0 1,0 1,0 2,-1 2,-1 2,-2 0,-1 0,-1 0,-1 -1,0 -2,0 -2,0 -1,0 -1,0 -2,0 0,0 0,0 0,1l-4 0c0,-1 0,-2 1,-3 1,-1 3,-2 5,-2 2,0 4,1 5,2 1,0 1,1 1,3l0 5c0,2 0,3 0,4 -1,1 -2,1 -3,2z"/>
  <path class="fil1" d="M17 98c0,0 -1,0 -1,0 -1,0 -2,0 -2,0 -1,-1 -1,-1 -1,-2 0,-1 1,-1 1,-2 0,0 1,-1 2,-1 0,0 1,0 1,1l0 0c0,0 -1,0 -1,0 -1,0 -1,0 -2,0 0,1 0,1 0,2 0,0 0,1 0,1 1,1 1,1 2,1 0,0 0,0 1,0l0 -2 -1 0 0 0 1 0 0 2zm5 0l-1 0 -1 -1c0,0 0,0 0,0 0,-1 0,-1 0,-1 0,0 0,0 0,0 0,0 0,0 -1,0l0 0 0 2 -1 0 0 -5 2 0c0,0 0,0 0,0 1,1 1,1 1,1 0,0 0,0 0,0 0,0 0,0 0,1 0,0 0,0 0,0 0,0 0,0 0,1 0,0 0,0 0,0 0,0 -1,0 -1,0l0 0c0,0 0,0 0,0 0,0 1,0 1,0 0,0 0,0 0,1 0,0 0,0 0,0l1 1zm-3 -4l0 2 1 0c0,0 0,0 0,0 0,0 0,0 0,-1 0,0 1,0 1,0 0,0 0,0 0,0 0,-1 0,-1 -1,-1 0,0 0,0 0,0l-1 0zm7 2c0,2 -1,2 -2,2 -1,0 -2,0 -2,-2l0 -3 1 0 0 3c0,1 0,2 1,2 1,0 2,-1 2,-2l0 -3 0 0 0 3zm2 0l0 2 -1 0 0 -5 2 0c0,0 1,1 1,1 0,0 0,0 0,1 0,0 0,1 0,1 -1,0 -1,0 -2,0l0 0zm0 -2l0 2 0 0c1,0 1,0 1,0 1,-1 1,-1 1,-1 0,-1 -1,-1 -1,-1l-1 0zm5 4c-1,0 -1,0 -2,0 0,-1 0,-1 0,-2 0,-1 0,-2 0,-2 1,0 1,-1 2,-1 1,0 1,1 2,1 0,0 0,1 0,2 0,1 0,1 0,2 -1,0 -1,0 -2,0zm0 -4c0,0 -1,0 -1,0 0,1 -1,1 -1,2 0,0 1,1 1,1 0,1 1,1 1,1 1,0 1,0 1,-1 1,0 1,-1 1,-1 0,-1 0,-1 -1,-2 0,0 0,0 -1,0zm9 4l-1 0 0 -1 -2 0 -1 1 0 0 2 -5 0 0 2 5zm-1 -2l-1 -2c0,0 0,0 0,0l0 0c0,0 0,0 0,0l-1 2 2 0zm4 2l-2 0 0 -5 0 0 0 5 2 0 0 0zm5 0l-1 0 0 -1 -2 0 -1 1 0 0 2 -5 0 0 2 5zm-1 -2l-1 -2c0,0 0,0 0,0l0 0c0,0 0,0 0,0l-1 2 2 0zm6 2l0 0 0 -3c0,0 0,0 0,0 0,-1 0,-1 0,-1l0 0c0,0 0,0 0,0 0,0 0,0 -1,0 0,0 0,1 0,1 0,0 0,0 0,0l-1 2 0 0 -1 -2c0,0 0,0 0,0 -1,0 -1,-1 -1,-1 0,0 0,0 0,0 0,0 0,0 0,0l0 0c0,0 0,0 0,0 0,1 0,1 0,1l0 3 0 0 0 -5 0 0 2 3c0,0 0,0 0,0 0,0 0,0 0,0l0 0c0,0 0,0 0,0 0,0 0,0 0,0l1 -3 1 0 0 5zm4 0l-3 0 0 -5 3 0 0 1 -2 0 0 2 2 0 0 0 -2 0 0 2 2 0 0 0zm1 0l0 -5 1 0c2,0 3,1 3,3 0,1 0,1 -1,2 0,0 -1,0 -2,0l-1 0zm1 -4l0 4 0 0c1,0 1,0 2,-1 0,0 0,-1 0,-1 0,-1 0,-2 -2,-2l0 0zm7 4l0 0 -1 -1 -2 0 0 1 -1 0 2 -5 1 0 1 5zm-1 -2l-1 -2c0,0 0,0 0,0l0 0c0,0 0,0 0,0l-1 2 2 0zm4 2l0 -1c0,0 0,1 0,1 0,0 0,0 0,0 1,0 1,0 1,0 0,0 0,0 0,0 1,0 1,0 1,0 0,0 0,-1 0,-1 0,0 0,0 0,0 0,0 0,0 0,-1 0,0 0,0 0,0 -1,0 -1,0 -1,0 0,0 0,0 0,0 -1,0 -1,0 -1,-1 0,0 0,0 0,0 0,0 0,0 0,0 0,-1 0,-1 0,-1 0,0 0,0 0,0 1,0 1,-1 1,-1 0,0 0,0 1,0 0,0 0,0 1,0l0 1c-1,0 -1,0 -1,0 -1,0 -1,0 -1,0 0,0 0,0 0,0 0,0 0,0 0,0 -1,0 -1,0 -1,1 0,0 0,0 1,0 0,0 0,0 0,0 0,0 0,0 0,0 0,0 0,0 1,1 0,0 0,0 0,0 0,0 0,0 0,0 1,0 1,0 1,1 0,0 0,0 0,0 0,0 0,0 0,1 0,0 -1,0 -1,0 0,0 0,0 0,0 0,0 -1,0 -1,0 0,0 0,0 0,0 0,0 0,0 -1,0 0,0 0,0 0,0 0,0 0,0 0,0zm4 0c0,0 0,0 0,0 0,0 0,0 0,0 0,0 0,0 0,0 0,0 0,0 0,0 0,0 0,0 0,0 0,0 0,0 0,0 0,0 0,0 0,0 0,0 0,0 0,0zm5 0l-1 0 0 -1 -2 0 -1 1 0 0 2 -5 0 0 2 5zm-1 -2l-1 -2c0,0 0,0 0,0l0 0c0,0 0,0 0,0l-1 2 2 0zm2 2c0,0 0,0 0,0 0,0 0,0 0,0 0,0 0,0 0,0 0,0 0,0 0,0 0,0 0,0 0,0 0,0 0,0 0,0 0,0 0,0 0,0 0,0 0,0 0,0zm5 0c-1,0 -1,0 -2,0 0,0 -1,0 -1,0 -1,-1 -1,-1 -1,-2 0,-1 0,-1 1,-2 0,0 1,-1 1,-1 1,0 1,0 2,1l0 0c-1,0 -1,0 -2,0 0,0 -1,0 -1,0 0,1 0,1 0,2 0,0 0,1 0,1 0,1 1,1 1,1 1,0 1,0 2,0l0 0zm1 0c0,0 0,0 -1,0 0,0 0,0 0,0 0,0 0,0 0,0 1,0 1,0 1,0 0,0 0,0 0,0 0,0 0,0 0,0 0,0 0,0 0,0 0,0 0,0 0,0z"/>
 </g>
</svg>
